<svg xmlns="http://www.w3.org/2000/svg" viewBox="0 0 135 90"><defs><style>.cls-1{isolation:isolate;}.cls-2{fill:#7c0d37;}</style></defs><g id="Layer_2" data-name="Layer 2"><g id="Layer_1-2" data-name="Layer 1"><g id="_copy" data-name=" copy" class="cls-1"><g class="cls-1"><path class="cls-2" d="M42.43,21.74l-24.76,84.9a3.76,3.76,0,0,1-3.6,2.7H3.75a3.76,3.76,0,0,1-3.46-5.2L35.15,20.49a2,2,0,0,1,1.73-1.15h3.75A1.88,1.88,0,0,1,42.43,21.74Zm36.86,64.7,2,18.75a3.75,3.75,0,0,1-3.73,4.15H57.46a3.75,3.75,0,0,1-3.73-4.15l2-18.75a3.74,3.74,0,0,1,3.73-3.35H75.56A3.74,3.74,0,0,1,79.29,86.44Zm-22-15,1.19-11.25a3.74,3.74,0,0,1,3.73-3.35H72.79a3.74,3.74,0,0,1,3.73,3.35l1.19,11.25A3.75,3.75,0,0,1,74,75.59H61A3.76,3.76,0,0,1,57.29,71.44ZM60,46.23,61,36a1.87,1.87,0,0,1,1.86-1.67H72.1A1.92,1.92,0,0,1,74,36l1.08,10.22a2.82,2.82,0,0,1-2.8,3.11h-9.5A2.82,2.82,0,0,1,60,46.23Zm2.27-21.47L62.61,21a1.88,1.88,0,0,1,1.87-1.67h6A1.92,1.92,0,0,1,72.39,21l.39,3.75a1.88,1.88,0,0,1-1.86,2.08H64.08A1.88,1.88,0,0,1,62.22,24.76Zm69,84.58H120.93a4,4,0,0,1-3.6-2.7L92.57,21.74a1.87,1.87,0,0,1,1.8-2.4h3.75a2,2,0,0,1,1.73,1.15l34.86,83.65A3.76,3.76,0,0,1,131.25,109.34Z" transform="translate(0 -19.34)"/></g></g></g></g></svg>